<svg xmlns="http://www.w3.org/2000/svg" xmlns:xlink="http://www.w3.org/1999/xlink" width="1080" zoomAndPan="magnify" viewBox="0 0 810 809.999993" height="1080" preserveAspectRatio="xMidYMid meet" version="1.0"><defs><g/></defs><g fill="#ffffff" fill-opacity="1"><g transform="translate(0.0000035, 484.283368)"><g><path d="M 55.53125 1.984375 C 45.71875 1.984375 37.140625 -0.484375 29.796875 -5.421875 C 22.460938 -10.359375 16.769531 -17.320312 12.71875 -26.3125 C 8.664062 -35.3125 6.640625 -45.9375 6.640625 -58.1875 C 6.640625 -70.425781 8.664062 -81.039062 12.71875 -90.03125 C 16.769531 -99.03125 22.445312 -105.984375 29.75 -110.890625 C 37.050781 -115.796875 45.570312 -118.25 55.3125 -118.25 C 63.632812 -118.25 70.984375 -116.3125 77.359375 -112.4375 C 83.742188 -108.5625 88.5625 -103.414062 91.8125 -97 L 92.25 -97 L 92.25 -159.609375 L 116.25 -159.609375 L 116.25 0 L 93.03125 0 L 93.03125 -19.796875 L 92.578125 -19.796875 C 89.191406 -13.160156 84.289062 -7.867188 77.875 -3.921875 C 71.457031 0.015625 64.007812 1.984375 55.53125 1.984375 Z M 61.828125 -98.109375 C 55.554688 -98.109375 50.117188 -96.484375 45.515625 -93.234375 C 40.910156 -89.992188 37.351562 -85.382812 34.84375 -79.40625 C 32.332031 -73.4375 31.078125 -66.363281 31.078125 -58.1875 C 31.078125 -50 32.332031 -42.914062 34.84375 -36.9375 C 37.351562 -30.96875 40.910156 -26.359375 45.515625 -23.109375 C 50.117188 -19.867188 55.554688 -18.25 61.828125 -18.25 C 67.953125 -18.25 73.316406 -19.890625 77.921875 -23.171875 C 82.535156 -26.453125 86.113281 -31.078125 88.65625 -37.046875 C 91.195312 -43.023438 92.46875 -50.070312 92.46875 -58.1875 C 92.46875 -66.21875 91.195312 -73.21875 88.65625 -79.1875 C 86.113281 -85.164062 82.535156 -89.8125 77.921875 -93.125 C 73.316406 -96.445312 67.953125 -98.109375 61.828125 -98.109375 Z M 61.828125 -98.109375 "/></g></g><g transform="translate(128.857606, 484.283368)"><g><path d="M 60.5 -99.21875 C 54.96875 -99.21875 50.046875 -97.90625 45.734375 -95.28125 C 41.421875 -92.664062 37.972656 -89.09375 35.390625 -84.5625 C 32.816406 -80.03125 31.304688 -74.8125 30.859375 -68.90625 L 89.046875 -68.90625 C 88.898438 -74.882812 87.609375 -80.140625 85.171875 -84.671875 C 82.734375 -89.203125 79.410156 -92.757812 75.203125 -95.34375 C 71.003906 -97.925781 66.101562 -99.21875 60.5 -99.21875 Z M 88.9375 -34.171875 L 111.609375 -34.171875 C 110.503906 -27.097656 107.664062 -20.832031 103.09375 -15.375 C 98.519531 -9.914062 92.675781 -5.617188 85.5625 -2.484375 C 78.445312 0.648438 70.425781 2.21875 61.5 2.21875 C 50.144531 2.21875 40.351562 -0.210938 32.125 -5.078125 C 23.90625 -9.953125 17.601562 -16.867188 13.21875 -25.828125 C 8.832031 -34.785156 6.640625 -45.382812 6.640625 -57.625 C 6.640625 -66.769531 7.890625 -75.066406 10.390625 -82.515625 C 12.898438 -89.960938 16.515625 -96.378906 21.234375 -101.765625 C 25.953125 -107.148438 31.628906 -111.28125 38.265625 -114.15625 C 44.898438 -117.03125 52.3125 -118.46875 60.5 -118.46875 C 71.269531 -118.46875 80.582031 -116.066406 88.4375 -111.265625 C 96.289062 -106.472656 102.335938 -99.742188 106.578125 -91.078125 C 110.816406 -82.421875 112.9375 -72.191406 112.9375 -60.390625 L 112.9375 -52.203125 L 30.75 -52.203125 L 30.75 -50.765625 C 30.75 -44.054688 32.019531 -38.175781 34.5625 -33.125 C 37.101562 -28.070312 40.734375 -24.144531 45.453125 -21.34375 C 50.179688 -18.539062 55.710938 -17.140625 62.046875 -17.140625 C 68.835938 -17.140625 74.609375 -18.707031 79.359375 -21.84375 C 84.117188 -24.976562 87.3125 -29.085938 88.9375 -34.171875 Z M 88.9375 -34.171875 "/></g></g><g transform="translate(248.424187, 484.283368)"><g><path d="M 11.828125 0 L 11.828125 -116.359375 L 34.625 -116.359375 L 34.625 -96.78125 L 35.171875 -96.78125 C 37.753906 -103.269531 41.957031 -108.488281 47.78125 -112.4375 C 53.601562 -116.382812 60.425781 -118.359375 68.25 -118.359375 C 76.363281 -118.359375 83.238281 -116.363281 88.875 -112.375 C 94.519531 -108.394531 98.484375 -102.789062 100.765625 -95.5625 L 101.3125 -95.5625 C 104.34375 -102.644531 109.082031 -108.210938 115.53125 -112.265625 C 121.988281 -116.328125 129.34375 -118.359375 137.59375 -118.359375 C 145.269531 -118.359375 151.960938 -116.769531 157.671875 -113.59375 C 163.390625 -110.425781 167.816406 -105.960938 170.953125 -100.203125 C 174.085938 -94.453125 175.65625 -87.707031 175.65625 -79.96875 L 175.65625 0 L 151.640625 0 L 151.640625 -74.21875 C 151.640625 -81.738281 149.703125 -87.5625 145.828125 -91.6875 C 141.960938 -95.820312 136.492188 -97.890625 129.421875 -97.890625 C 124.691406 -97.890625 120.519531 -96.800781 116.90625 -94.625 C 113.300781 -92.445312 110.484375 -89.476562 108.453125 -85.71875 C 106.421875 -81.957031 105.40625 -77.609375 105.40625 -72.671875 L 105.40625 0 L 81.96875 0 L 81.96875 -75.984375 C 81.96875 -82.703125 79.992188 -88.03125 76.046875 -91.96875 C 72.097656 -95.914062 66.734375 -97.890625 59.953125 -97.890625 C 55.234375 -97.890625 51.046875 -96.765625 47.390625 -94.515625 C 43.742188 -92.265625 40.890625 -89.1875 38.828125 -85.28125 C 36.765625 -81.375 35.734375 -76.910156 35.734375 -71.890625 L 35.734375 0 Z M 11.828125 0 "/></g></g><g transform="translate(435.240058, 484.283368)"><g><path d="M 12.609375 0 L 12.609375 -116.359375 L 36.5 -116.359375 L 36.5 0 Z M 24.5625 -133.390625 C 22.050781 -133.390625 19.742188 -134 17.640625 -135.21875 C 15.535156 -136.4375 13.859375 -138.078125 12.609375 -140.140625 C 11.359375 -142.203125 10.734375 -144.488281 10.734375 -147 C 10.734375 -149.582031 11.359375 -151.90625 12.609375 -153.96875 C 13.859375 -156.03125 15.535156 -157.671875 17.640625 -158.890625 C 19.742188 -160.109375 22.050781 -160.71875 24.5625 -160.71875 C 27.132812 -160.71875 29.472656 -160.109375 31.578125 -158.890625 C 33.679688 -157.671875 35.359375 -156.03125 36.609375 -153.96875 C 37.867188 -151.90625 38.5 -149.582031 38.5 -147 C 38.5 -144.488281 37.867188 -142.203125 36.609375 -140.140625 C 35.359375 -138.078125 33.679688 -136.4375 31.578125 -135.21875 C 29.472656 -134 27.132812 -133.390625 24.5625 -133.390625 Z M 24.5625 -133.390625 "/></g></g><g transform="translate(484.349737, 484.283368)"><g><path d="M 111.609375 -116.359375 L 111.609375 0 L 88.703125 0 L 88.703125 -19.6875 L 88.15625 -19.6875 C 84.988281 -12.757812 80.414062 -7.394531 74.4375 -3.59375 C 68.46875 0.207031 61.019531 2.109375 52.09375 2.109375 C 43.6875 2.109375 36.421875 0.359375 30.296875 -3.140625 C 24.179688 -6.648438 19.484375 -11.628906 16.203125 -18.078125 C 12.921875 -24.535156 11.28125 -32.1875 11.28125 -41.03125 L 11.28125 -116.359375 L 35.171875 -116.359375 L 35.171875 -45.6875 C 35.171875 -36.832031 37.253906 -30.082031 41.421875 -25.4375 C 45.585938 -20.789062 51.800781 -18.46875 60.0625 -18.46875 C 65.8125 -18.46875 70.75 -19.722656 74.875 -22.234375 C 79.007812 -24.742188 82.179688 -28.242188 84.390625 -32.734375 C 86.609375 -37.234375 87.71875 -42.507812 87.71875 -48.5625 L 87.71875 -116.359375 Z M 111.609375 -116.359375 "/></g></g><g transform="translate(607.676969, 484.283368)"><g><path d="M 11.828125 0 L 11.828125 -116.359375 L 34.625 -116.359375 L 34.625 -96.5625 L 35.171875 -96.5625 C 37.085938 -103.34375 40.515625 -108.648438 45.453125 -112.484375 C 50.398438 -116.328125 56.300781 -118.25 63.15625 -118.25 C 64.851562 -118.25 66.421875 -118.132812 67.859375 -117.90625 C 69.296875 -117.6875 70.457031 -117.503906 71.34375 -117.359375 L 71.34375 -95.125 C 70.382812 -95.488281 68.945312 -95.800781 67.03125 -96.0625 C 65.113281 -96.320312 62.972656 -96.453125 60.609375 -96.453125 C 52.941406 -96.453125 46.878906 -94.054688 42.421875 -89.265625 C 37.960938 -84.472656 35.734375 -77.945312 35.734375 -69.6875 L 35.734375 0 Z M 11.828125 0 "/></g></g><g transform="translate(682.005131, 484.283368)"><g><path d="M 61.390625 -19.359375 C 67.660156 -19.359375 73.097656 -20.960938 77.703125 -24.171875 C 82.316406 -27.378906 85.910156 -31.910156 88.484375 -37.765625 C 91.066406 -43.628906 92.359375 -50.546875 92.359375 -58.515625 C 92.359375 -66.472656 91.066406 -73.421875 88.484375 -79.359375 C 85.910156 -85.296875 82.316406 -89.90625 77.703125 -93.1875 C 73.097656 -96.46875 67.660156 -98.109375 61.390625 -98.109375 C 55.265625 -98.109375 49.9375 -96.484375 45.40625 -93.234375 C 40.875 -89.992188 37.351562 -85.425781 34.84375 -79.53125 C 32.332031 -73.632812 31.078125 -66.628906 31.078125 -58.515625 C 31.078125 -50.398438 32.332031 -43.410156 34.84375 -37.546875 C 37.351562 -31.691406 40.875 -27.195312 45.40625 -24.0625 C 49.9375 -20.925781 55.265625 -19.359375 61.390625 -19.359375 Z M 61.609375 43.796875 C 52.460938 43.796875 44.238281 42.300781 36.9375 39.3125 C 29.644531 36.332031 23.726562 32.222656 19.1875 26.984375 C 14.65625 21.753906 11.875 15.78125 10.84375 9.0625 L 34.84375 9.0625 C 36.539062 13.9375 39.875 17.847656 44.84375 20.796875 C 49.820312 23.742188 55.707031 25.21875 62.5 25.21875 C 68.757812 25.21875 74.101562 24.109375 78.53125 21.890625 C 82.957031 19.679688 86.347656 16.585938 88.703125 12.609375 C 91.066406 8.628906 92.25 3.984375 92.25 -1.328125 L 92.25 -20.46875 L 91.8125 -20.46875 C 88.5625 -14.195312 83.691406 -9.144531 77.203125 -5.3125 C 70.710938 -1.476562 63.300781 0.4375 54.96875 0.4375 C 45.238281 0.4375 36.757812 -1.957031 29.53125 -6.75 C 22.300781 -11.539062 16.675781 -18.359375 12.65625 -27.203125 C 8.644531 -36.054688 6.640625 -46.53125 6.640625 -58.625 C 6.640625 -70.863281 8.644531 -81.425781 12.65625 -90.3125 C 16.675781 -99.195312 22.335938 -106.070312 29.640625 -110.9375 C 36.941406 -115.8125 45.570312 -118.25 55.53125 -118.25 C 63.789062 -118.25 71.144531 -116.3125 77.59375 -112.4375 C 84.039062 -108.5625 89.035156 -103.234375 92.578125 -96.453125 L 93.03125 -96.453125 L 93.03125 -116.359375 L 116.25 -116.359375 L 116.25 -2.109375 C 116.25 7.109375 114 15.164062 109.5 22.0625 C 105 28.957031 98.65625 34.300781 90.46875 38.09375 C 82.289062 41.894531 72.671875 43.796875 61.609375 43.796875 Z M 61.609375 43.796875 "/></g></g></g></svg>