<svg xmlns="http://www.w3.org/2000/svg" xmlns:xlink="http://www.w3.org/1999/xlink" width="160" zoomAndPan="magnify" viewBox="0 0 120 37.5" height="50" preserveAspectRatio="xMidYMid meet" version="1.0"><defs><g/></defs><g fill="#ffffff" fill-opacity="1"><g transform="translate(10.041118, 27.235691)"><g><path d="M 6.84375 0.25 C 5.632812 0.25 4.578125 -0.0507812 3.671875 -0.65625 C 2.765625 -1.269531 2.0625 -2.128906 1.5625 -3.234375 C 1.0625 -4.347656 0.8125 -5.660156 0.8125 -7.171875 C 0.8125 -8.679688 1.0625 -9.988281 1.5625 -11.09375 C 2.0625 -12.207031 2.757812 -13.066406 3.65625 -13.671875 C 4.5625 -14.273438 5.617188 -14.578125 6.828125 -14.578125 C 7.847656 -14.578125 8.75 -14.335938 9.53125 -13.859375 C 10.320312 -13.390625 10.921875 -12.757812 11.328125 -11.96875 L 11.375 -11.96875 L 11.375 -19.6875 L 14.34375 -19.6875 L 14.34375 0 L 11.46875 0 L 11.46875 -2.4375 L 11.421875 -2.4375 C 11.003906 -1.625 10.398438 -0.972656 9.609375 -0.484375 C 8.816406 0.00390625 7.894531 0.25 6.84375 0.25 Z M 7.625 -12.09375 C 6.851562 -12.09375 6.179688 -11.894531 5.609375 -11.5 C 5.046875 -11.101562 4.609375 -10.535156 4.296875 -9.796875 C 3.984375 -9.054688 3.828125 -8.179688 3.828125 -7.171875 C 3.828125 -6.160156 3.984375 -5.285156 4.296875 -4.546875 C 4.609375 -3.816406 5.046875 -3.25 5.609375 -2.84375 C 6.179688 -2.445312 6.851562 -2.25 7.625 -2.25 C 8.375 -2.25 9.035156 -2.453125 9.609375 -2.859375 C 10.179688 -3.265625 10.625 -3.832031 10.9375 -4.5625 C 11.25 -5.300781 11.40625 -6.171875 11.40625 -7.171875 C 11.40625 -8.160156 11.25 -9.023438 10.9375 -9.765625 C 10.625 -10.503906 10.179688 -11.078125 9.609375 -11.484375 C 9.035156 -11.890625 8.375 -12.09375 7.625 -12.09375 Z M 7.625 -12.09375 "/></g></g><g transform="translate(25.936816, 27.235691)"><g><path d="M 7.46875 -12.234375 C 6.78125 -12.234375 6.171875 -12.070312 5.640625 -11.75 C 5.109375 -11.425781 4.679688 -10.984375 4.359375 -10.421875 C 4.046875 -9.867188 3.863281 -9.226562 3.8125 -8.5 L 10.984375 -8.5 C 10.960938 -9.238281 10.800781 -9.882812 10.5 -10.4375 C 10.195312 -11 9.785156 -11.4375 9.265625 -11.75 C 8.753906 -12.070312 8.15625 -12.234375 7.46875 -12.234375 Z M 10.96875 -4.21875 L 13.765625 -4.21875 C 13.628906 -3.34375 13.28125 -2.566406 12.71875 -1.890625 C 12.15625 -1.222656 11.429688 -0.695312 10.546875 -0.3125 C 9.671875 0.0703125 8.679688 0.265625 7.578125 0.265625 C 6.179688 0.265625 4.972656 -0.03125 3.953125 -0.625 C 2.941406 -1.226562 2.164062 -2.082031 1.625 -3.1875 C 1.082031 -4.289062 0.8125 -5.597656 0.8125 -7.109375 C 0.8125 -8.234375 0.96875 -9.253906 1.28125 -10.171875 C 1.59375 -11.085938 2.039062 -11.878906 2.625 -12.546875 C 3.207031 -13.210938 3.90625 -13.722656 4.71875 -14.078125 C 5.539062 -14.429688 6.457031 -14.609375 7.46875 -14.609375 C 8.789062 -14.609375 9.9375 -14.3125 10.90625 -13.71875 C 11.875 -13.132812 12.617188 -12.304688 13.140625 -11.234375 C 13.660156 -10.160156 13.921875 -8.898438 13.921875 -7.453125 L 13.921875 -6.4375 L 3.796875 -6.4375 L 3.796875 -6.265625 C 3.796875 -5.429688 3.953125 -4.703125 4.265625 -4.078125 C 4.578125 -3.460938 5.023438 -2.976562 5.609375 -2.625 C 6.191406 -2.28125 6.875 -2.109375 7.65625 -2.109375 C 8.488281 -2.109375 9.195312 -2.300781 9.78125 -2.6875 C 10.375 -3.082031 10.769531 -3.59375 10.96875 -4.21875 Z M 10.96875 -4.21875 "/></g></g><g transform="translate(40.686386, 27.235691)"><g><path d="M 1.453125 0 L 1.453125 -14.34375 L 4.265625 -14.34375 L 4.265625 -11.9375 L 4.34375 -11.9375 C 4.65625 -12.738281 5.171875 -13.378906 5.890625 -13.859375 C 6.609375 -14.347656 7.453125 -14.59375 8.421875 -14.59375 C 9.421875 -14.59375 10.265625 -14.347656 10.953125 -13.859375 C 11.648438 -13.367188 12.140625 -12.675781 12.421875 -11.78125 L 12.5 -11.78125 C 12.875 -12.65625 13.457031 -13.34375 14.25 -13.84375 C 15.039062 -14.34375 15.945312 -14.59375 16.96875 -14.59375 C 17.914062 -14.59375 18.738281 -14.394531 19.4375 -14 C 20.144531 -13.613281 20.691406 -13.066406 21.078125 -12.359375 C 21.460938 -11.648438 21.65625 -10.816406 21.65625 -9.859375 L 21.65625 0 L 18.703125 0 L 18.703125 -9.15625 C 18.703125 -10.082031 18.460938 -10.800781 17.984375 -11.3125 C 17.503906 -11.820312 16.828125 -12.078125 15.953125 -12.078125 C 15.378906 -12.078125 14.867188 -11.941406 14.421875 -11.671875 C 13.972656 -11.398438 13.625 -11.03125 13.375 -10.5625 C 13.125 -10.101562 13 -9.570312 13 -8.96875 L 13 0 L 10.109375 0 L 10.109375 -9.375 C 10.109375 -10.195312 9.863281 -10.851562 9.375 -11.34375 C 8.894531 -11.832031 8.234375 -12.078125 7.390625 -12.078125 C 6.804688 -12.078125 6.289062 -11.9375 5.84375 -11.65625 C 5.394531 -11.375 5.039062 -10.992188 4.78125 -10.515625 C 4.53125 -10.035156 4.40625 -9.484375 4.40625 -8.859375 L 4.40625 0 Z M 1.453125 0 "/></g></g><g transform="translate(63.731736, 27.235691)"><g><path d="M 1.5625 0 L 1.5625 -14.34375 L 4.5 -14.34375 L 4.5 0 Z M 3.03125 -16.453125 C 2.71875 -16.453125 2.429688 -16.523438 2.171875 -16.671875 C 1.910156 -16.828125 1.703125 -17.03125 1.546875 -17.28125 C 1.398438 -17.539062 1.328125 -17.820312 1.328125 -18.125 C 1.328125 -18.445312 1.398438 -18.734375 1.546875 -18.984375 C 1.703125 -19.242188 1.910156 -19.445312 2.171875 -19.59375 C 2.429688 -19.75 2.71875 -19.828125 3.03125 -19.828125 C 3.34375 -19.828125 3.628906 -19.75 3.890625 -19.59375 C 4.148438 -19.445312 4.359375 -19.242188 4.515625 -18.984375 C 4.671875 -18.734375 4.75 -18.445312 4.75 -18.125 C 4.75 -17.820312 4.671875 -17.539062 4.515625 -17.28125 C 4.359375 -17.03125 4.148438 -16.828125 3.890625 -16.671875 C 3.628906 -16.523438 3.34375 -16.453125 3.03125 -16.453125 Z M 3.03125 -16.453125 "/></g></g><g transform="translate(69.789839, 27.235691)"><g><path d="M 13.765625 -14.34375 L 13.765625 0 L 10.9375 0 L 10.9375 -2.421875 L 10.875 -2.421875 C 10.476562 -1.566406 9.910156 -0.90625 9.171875 -0.4375 C 8.441406 0.03125 7.523438 0.265625 6.421875 0.265625 C 5.390625 0.265625 4.492188 0.0507812 3.734375 -0.375 C 2.984375 -0.8125 2.40625 -1.425781 2 -2.21875 C 1.59375 -3.019531 1.390625 -3.96875 1.390625 -5.0625 L 1.390625 -14.34375 L 4.34375 -14.34375 L 4.34375 -5.640625 C 4.34375 -4.546875 4.597656 -3.710938 5.109375 -3.140625 C 5.617188 -2.566406 6.382812 -2.28125 7.40625 -2.28125 C 8.113281 -2.28125 8.722656 -2.429688 9.234375 -2.734375 C 9.742188 -3.046875 10.132812 -3.476562 10.40625 -4.03125 C 10.675781 -4.59375 10.8125 -5.242188 10.8125 -5.984375 L 10.8125 -14.34375 Z M 13.765625 -14.34375 "/></g></g><g transform="translate(85.003318, 27.235691)"><g><path d="M 1.453125 0 L 1.453125 -14.34375 L 4.265625 -14.34375 L 4.265625 -11.90625 L 4.34375 -11.90625 C 4.570312 -12.738281 4.988281 -13.390625 5.59375 -13.859375 C 6.207031 -14.335938 6.941406 -14.578125 7.796875 -14.578125 C 8.003906 -14.578125 8.195312 -14.5625 8.375 -14.53125 C 8.550781 -14.507812 8.691406 -14.488281 8.796875 -14.46875 L 8.796875 -11.734375 C 8.679688 -11.773438 8.503906 -11.8125 8.265625 -11.84375 C 8.023438 -11.875 7.757812 -11.890625 7.46875 -11.890625 C 6.53125 -11.890625 5.785156 -11.59375 5.234375 -11 C 4.679688 -10.414062 4.40625 -9.613281 4.40625 -8.59375 L 4.40625 0 Z M 1.453125 0 "/></g></g><g transform="translate(94.172338, 27.235691)"><g><path d="M 7.578125 -2.390625 C 8.347656 -2.390625 9.015625 -2.585938 9.578125 -2.984375 C 10.148438 -3.378906 10.59375 -3.9375 10.90625 -4.65625 C 11.226562 -5.382812 11.390625 -6.238281 11.390625 -7.21875 C 11.390625 -8.195312 11.226562 -9.050781 10.90625 -9.78125 C 10.59375 -10.519531 10.148438 -11.085938 9.578125 -11.484375 C 9.015625 -11.890625 8.347656 -12.09375 7.578125 -12.09375 C 6.816406 -12.09375 6.15625 -11.894531 5.59375 -11.5 C 5.039062 -11.101562 4.609375 -10.539062 4.296875 -9.8125 C 3.984375 -9.082031 3.828125 -8.21875 3.828125 -7.21875 C 3.828125 -6.21875 3.984375 -5.351562 4.296875 -4.625 C 4.609375 -3.90625 5.039062 -3.351562 5.59375 -2.96875 C 6.15625 -2.582031 6.816406 -2.390625 7.578125 -2.390625 Z M 7.59375 5.40625 C 6.46875 5.40625 5.453125 5.21875 4.546875 4.84375 C 3.648438 4.476562 2.921875 3.972656 2.359375 3.328125 C 1.804688 2.679688 1.46875 1.945312 1.34375 1.125 L 4.296875 1.125 C 4.503906 1.71875 4.914062 2.195312 5.53125 2.5625 C 6.144531 2.925781 6.867188 3.109375 7.703125 3.109375 C 8.472656 3.109375 9.128906 2.972656 9.671875 2.703125 C 10.222656 2.429688 10.644531 2.046875 10.9375 1.546875 C 11.226562 1.054688 11.375 0.488281 11.375 -0.15625 L 11.375 -2.53125 L 11.328125 -2.53125 C 10.921875 -1.75 10.316406 -1.125 9.515625 -0.65625 C 8.722656 -0.1875 7.8125 0.046875 6.78125 0.046875 C 5.582031 0.046875 4.535156 -0.242188 3.640625 -0.828125 C 2.753906 -1.421875 2.0625 -2.265625 1.5625 -3.359375 C 1.0625 -4.453125 0.8125 -5.742188 0.8125 -7.234375 C 0.8125 -8.742188 1.0625 -10.046875 1.5625 -11.140625 C 2.0625 -12.234375 2.757812 -13.078125 3.65625 -13.671875 C 4.550781 -14.273438 5.613281 -14.578125 6.84375 -14.578125 C 7.863281 -14.578125 8.769531 -14.335938 9.5625 -13.859375 C 10.363281 -13.390625 10.984375 -12.734375 11.421875 -11.890625 L 11.46875 -11.890625 L 11.46875 -14.34375 L 14.34375 -14.34375 L 14.34375 -0.265625 C 14.34375 0.878906 14.0625 1.875 13.5 2.71875 C 12.945312 3.570312 12.164062 4.234375 11.15625 4.703125 C 10.144531 5.171875 8.957031 5.40625 7.59375 5.40625 Z M 7.59375 5.40625 "/></g></g></g></svg>